<svg width="520" height="620" viewBox="0 0 520 620" fill="none" xmlns="http://www.w3.org/2000/svg">
  <ellipse cx="258" cy="592" rx="125" ry="16" fill="#0f172a" fill-opacity="0.12"/>
  <circle cx="254" cy="112" r="42" fill="#F7CDB1"/>
  <path d="M184 202C184 163 214 138 254 138C294 138 324 163 324 202V326H184V202Z" fill="#0EA5E9"/>
  <rect x="210" y="326" width="86" height="174" rx="36" fill="#111827"/>
  <rect x="194" y="500" width="36" height="86" rx="16" fill="#111827"/>
  <rect x="278" y="500" width="36" height="86" rx="16" fill="#111827"/>
  <rect x="130" y="236" width="52" height="152" rx="24" transform="rotate(7 130 236)" fill="#F7CDB1"/>
  <rect x="322" y="244" width="52" height="144" rx="24" transform="rotate(-7 322 244)" fill="#F7CDB1"/>
  <rect x="60" y="338" width="118" height="130" rx="14" fill="#EF4444"/>
  <path d="M86 338C86 314 102 296 118 296C134 296 150 314 150 338" stroke="#991B1B" stroke-width="10" stroke-linecap="round"/>
  <rect x="342" y="348" width="122" height="126" rx="14" fill="#22C55E"/>
  <path d="M368 348C368 324 384 307 402 307C420 307 436 324 436 348" stroke="#166534" stroke-width="10" stroke-linecap="round"/>
</svg>
